<mxfile host="app.diagrams.net" agent="Mozilla/5.0 (Macintosh; Intel Mac OS X 10_15_7) AppleWebKit/537.36 (KHTML, like Gecko) Chrome/131.0.0.0 Safari/537.36 Edg/131.0.0.0" version="26.0.2">
  <diagram name="Page-1" id="8378b5f6-a2b2-b727-a746-972ab9d02e00">
    <mxGraphModel dx="1865" dy="1025" grid="1" gridSize="10" guides="1" tooltips="1" connect="0" arrows="1" fold="1" page="1" pageScale="1.5" pageWidth="1169" pageHeight="827" background="none" math="0" shadow="0">
      <root>
        <mxCell id="0" />
        <mxCell id="1" parent="0" />
        <mxCell id="63" value="1" style="strokeColor=#DEEDFF;fillColor=#ADC3D9" parent="1" vertex="1">
          <mxGeometry x="326.5" y="380" width="40" height="20" as="geometry" />
        </mxCell>
        <mxCell id="64" value="Low Tech GmBH Migration to Azure" style="align=left;strokeColor=#DEEDFF;fillColor=#ADC3D9" parent="1" vertex="1">
          <mxGeometry x="366.5" y="380" width="320" height="20" as="geometry" />
        </mxCell>
        <mxCell id="68" value="" style="strokeColor=#DEEDFF" parent="1" vertex="1">
          <mxGeometry x="686.500000000002" y="380.0000000000002" width="20" height="520" as="geometry" />
        </mxCell>
        <mxCell id="69" value="2" style="strokeColor=#DEEDFF;fillColor=#CCE5FF" parent="1" vertex="1">
          <mxGeometry x="326.5000000000002" y="399.9999999999999" width="40" height="20" as="geometry" />
        </mxCell>
        <mxCell id="70" value="New Application Development" style="align=left;strokeColor=#DEEDFF;fillColor=#CCE5FF" parent="1" vertex="1">
          <mxGeometry x="366.5000000000002" y="399.9999999999999" width="319.9999999999998" height="20" as="geometry" />
        </mxCell>
        <mxCell id="74" value="3" style="strokeColor=#DEEDFF" parent="1" vertex="1">
          <mxGeometry x="326.5000000000003" y="419.9999999999998" width="40" height="20" as="geometry" />
        </mxCell>
        <mxCell id="75" value="HR Software" style="align=left;strokeColor=#DEEDFF" parent="1" vertex="1">
          <mxGeometry x="366.5000000000003" y="419.9999999999998" width="319.9999999999997" height="20.000000000000014" as="geometry" />
        </mxCell>
        <mxCell id="79" value="4" style="strokeColor=#DEEDFF" parent="1" vertex="1">
          <mxGeometry x="326.5" y="440.00000000000017" width="40" height="20" as="geometry" />
        </mxCell>
        <mxCell id="80" value="Reporting Management Software" style="align=left;strokeColor=#DEEDFF" parent="1" vertex="1">
          <mxGeometry x="366.5" y="440.00000000000017" width="320" height="20" as="geometry" />
        </mxCell>
        <mxCell id="84" value="5" style="strokeColor=#DEEDFF" parent="1" vertex="1">
          <mxGeometry x="326.4999999999999" y="460.00000000000017" width="40" height="20" as="geometry" />
        </mxCell>
        <mxCell id="85" value="Shift Management Software" style="align=left;strokeColor=#DEEDFF" parent="1" vertex="1">
          <mxGeometry x="366.4999999999999" y="460.00000000000017" width="320.0000000000001" height="20" as="geometry" />
        </mxCell>
        <mxCell id="89" value="6" style="strokeColor=#DEEDFF" parent="1" vertex="1">
          <mxGeometry x="326.4999999999999" y="480.00000000000045" width="40" height="20" as="geometry" />
        </mxCell>
        <mxCell id="90" value="Warehouse Management Software" style="align=left;strokeColor=#DEEDFF" parent="1" vertex="1">
          <mxGeometry x="366.4999999999999" y="480.00000000000045" width="320.0000000000001" height="20" as="geometry" />
        </mxCell>
        <mxCell id="94" value="7" style="strokeColor=#DEEDFF" parent="1" vertex="1">
          <mxGeometry x="326.5000000000006" y="500.0000000000007" width="40" height="20" as="geometry" />
        </mxCell>
        <mxCell id="95" value="Website" style="align=left;strokeColor=#DEEDFF" parent="1" vertex="1">
          <mxGeometry x="366.5000000000006" y="500.0000000000007" width="319.9999999999994" height="20" as="geometry" />
        </mxCell>
        <mxCell id="99" value="8" style="strokeColor=#DEEDFF" parent="1" vertex="1">
          <mxGeometry x="326.5000000000006" y="520.0000000000006" width="40" height="20" as="geometry" />
        </mxCell>
        <mxCell id="100" value="" style="align=left;strokeColor=#DEEDFF" parent="1" vertex="1">
          <mxGeometry x="366.5000000000006" y="520.0000000000006" width="319.9999999999994" height="20" as="geometry" />
        </mxCell>
        <mxCell id="109" value="10" style="strokeColor=#DEEDFF" parent="1" vertex="1">
          <mxGeometry x="326.5000000000003" y="540.000000000001" width="40" height="20" as="geometry" />
        </mxCell>
        <mxCell id="110" value="SCM Application Installation" style="align=left;strokeColor=#DEEDFF" parent="1" vertex="1">
          <mxGeometry x="366.5000000000003" y="540.000000000001" width="319.9999999999997" height="20" as="geometry" />
        </mxCell>
        <mxCell id="114" value="11" style="strokeColor=#DEEDFF" parent="1" vertex="1">
          <mxGeometry x="326.5000000000003" y="560.0000000000013" width="40" height="20" as="geometry" />
        </mxCell>
        <mxCell id="115" value="CRM Application Installation" style="align=left;strokeColor=#DEEDFF" parent="1" vertex="1">
          <mxGeometry x="366.5000000000003" y="560.0000000000013" width="319.9999999999997" height="20" as="geometry" />
        </mxCell>
        <mxCell id="119" value="12" style="strokeColor=#DEEDFF" parent="1" vertex="1">
          <mxGeometry x="326.5" y="580.0000000000016" width="40" height="20" as="geometry" />
        </mxCell>
        <mxCell id="120" value="" style="align=left;strokeColor=#DEEDFF" parent="1" vertex="1">
          <mxGeometry x="366.5" y="580.0000000000016" width="320" height="20" as="geometry" />
        </mxCell>
        <mxCell id="124" value="13" style="strokeColor=#DEEDFF" parent="1" vertex="1">
          <mxGeometry x="326.5" y="600.0000000000014" width="40" height="20" as="geometry" />
        </mxCell>
        <mxCell id="129" value="14" style="strokeColor=#DEEDFF" parent="1" vertex="1">
          <mxGeometry x="326.4999999999997" y="620.0000000000018" width="40" height="20" as="geometry" />
        </mxCell>
        <mxCell id="134" value="15" style="strokeColor=#DEEDFF;fillColor=#FFFFFF" parent="1" vertex="1">
          <mxGeometry x="326.49999999999966" y="640.0000000000018" width="40" height="20" as="geometry" />
        </mxCell>
        <mxCell id="135" value="Finance Legacy Application Deployment  " style="align=left;strokeColor=#DEEDFF;fillColor=#FFFFFF" parent="1" vertex="1">
          <mxGeometry x="366.49999999999966" y="620.0000000000018" width="320.00000000000034" height="20" as="geometry" />
        </mxCell>
        <mxCell id="139" value="16" style="strokeColor=#DEEDFF;fillColor=#CCE5FF" parent="1" vertex="1">
          <mxGeometry x="326.4999999999996" y="660.000000000002" width="40" height="20" as="geometry" />
        </mxCell>
        <mxCell id="140" value="Cloud installation" style="align=left;strokeColor=#DEEDFF;fillColor=#CCE5FF" parent="1" vertex="1">
          <mxGeometry x="366.4999999999996" y="520.000000000002" width="320.0000000000004" height="20" as="geometry" />
        </mxCell>
        <mxCell id="144" value="17" style="strokeColor=#DEEDFF" parent="1" vertex="1">
          <mxGeometry x="326.500000000001" y="680.0000000000023" width="40" height="20" as="geometry" />
        </mxCell>
        <mxCell id="145" value="Finance SAP Applications Deployment" style="align=left;strokeColor=#DEEDFF" parent="1" vertex="1">
          <mxGeometry x="366.500000000001" y="640.0000000000023" width="319.999999999999" height="20" as="geometry" />
        </mxCell>
        <mxCell id="149" value="18" style="strokeColor=#DEEDFF" parent="1" vertex="1">
          <mxGeometry x="326.500000000001" y="700.0000000000022" width="40" height="20" as="geometry" />
        </mxCell>
        <mxCell id="150" value="Warehouse Deliforce Deployment" style="align=left;strokeColor=#DEEDFF" parent="1" vertex="1">
          <mxGeometry x="366.500000000001" y="660.0000000000022" width="319.999999999999" height="20" as="geometry" />
        </mxCell>
        <mxCell id="154" value="19" style="strokeColor=#DEEDFF" parent="1" vertex="1">
          <mxGeometry x="326.50000000000074" y="720.0000000000025" width="40" height="20" as="geometry" />
        </mxCell>
        <mxCell id="159" value="20" style="strokeColor=#DEEDFF" parent="1" vertex="1">
          <mxGeometry x="326.5000000000007" y="740.0000000000025" width="40" height="20" as="geometry" />
        </mxCell>
        <mxCell id="164" value="21" style="strokeColor=#DEEDFF" parent="1" vertex="1">
          <mxGeometry x="326.5000000000007" y="760.0000000000028" width="40" height="20" as="geometry" />
        </mxCell>
        <mxCell id="169" value="22" style="strokeColor=#DEEDFF" parent="1" vertex="1">
          <mxGeometry x="326.50000000000136" y="780.0000000000031" width="40" height="20" as="geometry" />
        </mxCell>
        <mxCell id="174" value="23" style="strokeColor=#DEEDFF" parent="1" vertex="1">
          <mxGeometry x="326.50000000000136" y="800.000000000003" width="40" height="20" as="geometry" />
        </mxCell>
        <mxCell id="175" value="Facility Management Deployment" style="align=left;strokeColor=#DEEDFF" parent="1" vertex="1">
          <mxGeometry x="366.50000000000136" y="680.000000000003" width="319.99999999999864" height="20" as="geometry" />
        </mxCell>
        <mxCell id="179" value="24" style="strokeColor=#DEEDFF" parent="1" vertex="1">
          <mxGeometry x="326.50000000000114" y="820.0000000000034" width="40" height="20" as="geometry" />
        </mxCell>
        <mxCell id="180" value="Lead Management Deployment" style="align=left;strokeColor=#DEEDFF" parent="1" vertex="1">
          <mxGeometry x="366.50000000000114" y="700.0000000000034" width="319.99999999999886" height="20" as="geometry" />
        </mxCell>
        <mxCell id="184" value="25" style="strokeColor=#DEEDFF" parent="1" vertex="1">
          <mxGeometry x="326.500000000001" y="840.0000000000034" width="40" height="20" as="geometry" />
        </mxCell>
        <mxCell id="185" value="Microsoft Office 365" style="align=left;strokeColor=#DEEDFF" parent="1" vertex="1">
          <mxGeometry x="366.500000000001" y="740.0000000000034" width="319.999999999999" height="20" as="geometry" />
        </mxCell>
        <mxCell id="189" value="26" style="strokeColor=#DEEDFF" parent="1" vertex="1">
          <mxGeometry x="326.500000000001" y="860.0000000000036" width="40" height="20" as="geometry" />
        </mxCell>
        <mxCell id="190" value="Microsoft One Drive" style="align=left;strokeColor=#DEEDFF" parent="1" vertex="1">
          <mxGeometry x="366.500000000001" y="760.0000000000036" width="319.999999999999" height="20" as="geometry" />
        </mxCell>
        <mxCell id="194" value="" style="strokeColor=#DEEDFF" parent="1" vertex="1">
          <mxGeometry x="706.500000000002" y="380.00000000000387" width="20" height="520" as="geometry" />
        </mxCell>
        <mxCell id="195" value="" style="strokeColor=#DEEDFF" parent="1" vertex="1">
          <mxGeometry x="726.500000000002" y="380.00000000000387" width="20" height="520" as="geometry" />
        </mxCell>
        <mxCell id="196" value="" style="strokeColor=#DEEDFF" parent="1" vertex="1">
          <mxGeometry x="746.500000000002" y="380.00000000000387" width="20" height="520" as="geometry" />
        </mxCell>
        <mxCell id="197" value="" style="strokeColor=#DEEDFF" parent="1" vertex="1">
          <mxGeometry x="766.500000000002" y="380.00000000000387" width="20" height="520" as="geometry" />
        </mxCell>
        <mxCell id="198" value="" style="strokeColor=#DEEDFF;fillColor=#D4E1FF" parent="1" vertex="1">
          <mxGeometry x="786.500000000002" y="380.0000000000075" width="20" height="520" as="geometry" />
        </mxCell>
        <mxCell id="199" value="" style="strokeColor=#DEEDFF;fillColor=#D4E1FF" parent="1" vertex="1">
          <mxGeometry x="806.500000000002" y="380.0000000000075" width="20" height="520" as="geometry" />
        </mxCell>
        <mxCell id="200" value="" style="strokeColor=#DEEDFF" parent="1" vertex="1">
          <mxGeometry x="826.500000000002" y="380.0000000000075" width="20" height="520" as="geometry" />
        </mxCell>
        <mxCell id="201" value="" style="strokeColor=#DEEDFF" parent="1" vertex="1">
          <mxGeometry x="846.5000000000016" y="380.0000000000075" width="20" height="520" as="geometry" />
        </mxCell>
        <mxCell id="202" value="" style="strokeColor=#DEEDFF" parent="1" vertex="1">
          <mxGeometry x="866.5000000000016" y="380.00000000001114" width="20" height="520" as="geometry" />
        </mxCell>
        <mxCell id="203" value="" style="strokeColor=#DEEDFF" parent="1" vertex="1">
          <mxGeometry x="886.5000000000016" y="380.00000000001114" width="20" height="520" as="geometry" />
        </mxCell>
        <mxCell id="204" value="" style="strokeColor=#DEEDFF" parent="1" vertex="1">
          <mxGeometry x="906.5000000000016" y="380.00000000001114" width="20" height="520" as="geometry" />
        </mxCell>
        <mxCell id="205" value="" style="strokeColor=#DEEDFF;fillColor=#D4E1FF" parent="1" vertex="1">
          <mxGeometry x="926.5000000000018" y="380.00000000001114" width="20" height="520" as="geometry" />
        </mxCell>
        <mxCell id="206" value="" style="strokeColor=#DEEDFF;fillColor=#D4E1FF" parent="1" vertex="1">
          <mxGeometry x="946.5000000000018" y="380.0000000000148" width="20" height="520" as="geometry" />
        </mxCell>
        <mxCell id="207" value="" style="strokeColor=#DEEDFF" parent="1" vertex="1">
          <mxGeometry x="966.5000000000018" y="380.0000000000148" width="20" height="520" as="geometry" />
        </mxCell>
        <mxCell id="208" value="" style="strokeColor=#DEEDFF" parent="1" vertex="1">
          <mxGeometry x="986.5000000000018" y="380.0000000000148" width="20" height="520" as="geometry" />
        </mxCell>
        <mxCell id="209" value="" style="strokeColor=#DEEDFF" parent="1" vertex="1">
          <mxGeometry x="1006.5000000000018" y="380.0000000000002" width="20" height="520" as="geometry" />
        </mxCell>
        <mxCell id="210" value="" style="strokeColor=#DEEDFF" parent="1" vertex="1">
          <mxGeometry x="1026.5000000000018" y="380.00000000000387" width="20" height="520" as="geometry" />
        </mxCell>
        <mxCell id="211" value="" style="strokeColor=#DEEDFF" parent="1" vertex="1">
          <mxGeometry x="1046.5000000000018" y="380.00000000000387" width="20" height="520" as="geometry" />
        </mxCell>
        <mxCell id="212" value="" style="strokeColor=#DEEDFF;fillColor=#D4E1FF" parent="1" vertex="1">
          <mxGeometry x="1066.5000000000018" y="380.00000000000387" width="20" height="520" as="geometry" />
        </mxCell>
        <mxCell id="213" value="" style="strokeColor=#DEEDFF;fillColor=#D4E1FF" parent="1" vertex="1">
          <mxGeometry x="1086.5000000000018" y="380.0000000000148" width="20" height="520" as="geometry" />
        </mxCell>
        <mxCell id="214" value="" style="strokeColor=#DEEDFF" parent="1" vertex="1">
          <mxGeometry x="1106.5000000000018" y="380.0000000000184" width="20" height="520" as="geometry" />
        </mxCell>
        <mxCell id="215" value="" style="strokeColor=#DEEDFF" parent="1" vertex="1">
          <mxGeometry x="1126.5000000000018" y="380.0000000000184" width="20" height="520" as="geometry" />
        </mxCell>
        <mxCell id="216" value="" style="strokeColor=#DEEDFF" parent="1" vertex="1">
          <mxGeometry x="1146.5000000000018" y="380.0000000000184" width="20" height="520" as="geometry" />
        </mxCell>
        <mxCell id="217" value="" style="strokeColor=#DEEDFF" parent="1" vertex="1">
          <mxGeometry x="1166.500000000002" y="380.0000000000184" width="20" height="520" as="geometry" />
        </mxCell>
        <mxCell id="218" value="" style="strokeColor=#DEEDFF" parent="1" vertex="1">
          <mxGeometry x="1186.500000000002" y="380.00000000002206" width="20" height="520" as="geometry" />
        </mxCell>
        <mxCell id="219" value="" style="strokeColor=#DEEDFF;fillColor=#D4E1FF" parent="1" vertex="1">
          <mxGeometry x="1206.500000000002" y="380.00000000002206" width="20" height="520" as="geometry" />
        </mxCell>
        <mxCell id="220" value="" style="strokeColor=#DEEDFF;fillColor=#D4E1FF" parent="1" vertex="1">
          <mxGeometry x="1226.500000000002" y="380.00000000002206" width="20" height="520" as="geometry" />
        </mxCell>
        <mxCell id="221" value="" style="strokeColor=#DEEDFF" parent="1" vertex="1">
          <mxGeometry x="1246.500000000002" y="380.00000000002206" width="20" height="520" as="geometry" />
        </mxCell>
        <mxCell id="222" value="" style="strokeColor=#DEEDFF" parent="1" vertex="1">
          <mxGeometry x="1266.500000000002" y="380.0000000000257" width="20" height="520" as="geometry" />
        </mxCell>
        <mxCell id="223" value="" style="strokeColor=#DEEDFF" parent="1" vertex="1">
          <mxGeometry x="1286.500000000002" y="380.0000000000257" width="20" height="520" as="geometry" />
        </mxCell>
        <mxCell id="224" value="" style="strokeColor=#DEEDFF" parent="1" vertex="1">
          <mxGeometry x="1306.500000000002" y="380.0000000000257" width="20" height="520" as="geometry" />
        </mxCell>
        <mxCell id="225" value="" style="strokeColor=#DEEDFF" parent="1" vertex="1">
          <mxGeometry x="1326.5000000000016" y="380.0000000000257" width="20" height="520" as="geometry" />
        </mxCell>
        <mxCell id="226" value="" style="strokeColor=#DEEDFF;fillColor=#D4E1FF" parent="1" vertex="1">
          <mxGeometry x="1346.5000000000016" y="380.00000000002933" width="20" height="520" as="geometry" />
        </mxCell>
        <mxCell id="227" value="" style="strokeColor=#DEEDFF;fillColor=#D4E1FF" parent="1" vertex="1">
          <mxGeometry x="1366.5000000000016" y="380.00000000002933" width="20" height="520" as="geometry" />
        </mxCell>
        <mxCell id="228" value="" style="strokeColor=#DEEDFF" parent="1" vertex="1">
          <mxGeometry x="1386.5000000000016" y="380.00000000002933" width="20" height="520" as="geometry" />
        </mxCell>
        <mxCell id="229" value="" style="strokeColor=#DEEDFF" parent="1" vertex="1">
          <mxGeometry x="1406.5000000000016" y="380.00000000002933" width="20" height="520" as="geometry" />
        </mxCell>
        <mxCell id="230" value="" style="strokeColor=#DEEDFF" parent="1" vertex="1">
          <mxGeometry x="1426.5000000000016" y="380.00000000003297" width="20" height="520" as="geometry" />
        </mxCell>
        <mxCell id="231" value="" style="strokeColor=#DEEDFF" parent="1" vertex="1">
          <mxGeometry x="1446.5000000000016" y="380.00000000003297" width="20" height="520" as="geometry" />
        </mxCell>
        <mxCell id="232" value="" style="strokeColor=#DEEDFF" parent="1" vertex="1">
          <mxGeometry x="1466.5000000000016" y="380.00000000003297" width="20" height="520" as="geometry" />
        </mxCell>
        <mxCell id="233" value="" style="strokeColor=#DEEDFF;fillColor=#D4E1FF" parent="1" vertex="1">
          <mxGeometry x="1486.5000000000016" y="380.0000000000184" width="20" height="520" as="geometry" />
        </mxCell>
        <mxCell id="234" value="" style="strokeColor=#DEEDFF;fillColor=#D4E1FF" parent="1" vertex="1">
          <mxGeometry x="1506.5000000000016" y="380.00000000002206" width="20" height="520" as="geometry" />
        </mxCell>
        <mxCell id="235" value="" style="strokeColor=#DEEDFF" parent="1" vertex="1">
          <mxGeometry x="1526.5000000000016" y="380.00000000002206" width="20" height="520" as="geometry" />
        </mxCell>
        <mxCell id="236" value="" style="strokeColor=#DEEDFF" parent="1" vertex="1">
          <mxGeometry x="1546.5000000000016" y="380.00000000002206" width="20" height="520" as="geometry" />
        </mxCell>
        <mxCell id="237" value="" style="strokeColor=#DEEDFF" parent="1" vertex="1">
          <mxGeometry x="1566.5000000000016" y="380.00000000003297" width="20" height="520" as="geometry" />
        </mxCell>
        <mxCell id="238" value="" style="strokeColor=#DEEDFF" parent="1" vertex="1">
          <mxGeometry x="1586.5000000000016" y="380.0000000000366" width="20" height="520" as="geometry" />
        </mxCell>
        <mxCell id="239" value="" style="strokeColor=#DEEDFF" parent="1" vertex="1">
          <mxGeometry x="1606.5000000000016" y="380.0000000000366" width="20" height="520" as="geometry" />
        </mxCell>
        <mxCell id="240" value="" style="strokeColor=#DEEDFF;fillColor=#D4E1FF" parent="1" vertex="1">
          <mxGeometry x="1626.5000000000016" y="380.0000000000366" width="20" height="520" as="geometry" />
        </mxCell>
        <mxCell id="241" value="" style="strokeColor=#DEEDFF;fillColor=#D4E1FF" parent="1" vertex="1">
          <mxGeometry x="1646.5000000000018" y="380.0000000000366" width="20" height="520" as="geometry" />
        </mxCell>
        <mxCell id="2" value="Task Name" style="fillColor=#23445D;strokeColor=#FFFFFF;strokeWidth=2;fontColor=#FFFFFF;fontStyle=1" parent="1" vertex="1">
          <mxGeometry x="366.5" y="340" width="320" height="40" as="geometry" />
        </mxCell>
        <mxCell id="3" value="" style="fillColor=#23445D;strokeColor=#FFFFFF;strokeWidth=2;fontColor=#FFFFFF;fontStyle=1" parent="1" vertex="1">
          <mxGeometry x="326.5" y="340" width="40" height="40" as="geometry" />
        </mxCell>
        <mxCell id="4" value="Month 1-2" style="fillColor=#23445D;strokeColor=#FFFFFF;strokeWidth=2;fontColor=#FFFFFF;fontStyle=1" parent="1" vertex="1">
          <mxGeometry x="686.5" y="340" width="140" height="40" as="geometry" />
        </mxCell>
        <mxCell id="15" value="Month 3-4" style="fillColor=#23445D;strokeColor=#FFFFFF;strokeWidth=2;fontColor=#FFFFFF;fontStyle=1" parent="1" vertex="1">
          <mxGeometry x="826.5" y="340" width="140" height="40" as="geometry" />
        </mxCell>
        <mxCell id="23" value="Month 5-6" style="fillColor=#23445D;strokeColor=#FFFFFF;strokeWidth=2;fontColor=#FFFFFF;fontStyle=1" parent="1" vertex="1">
          <mxGeometry x="966.5" y="340" width="140" height="40" as="geometry" />
        </mxCell>
        <mxCell id="31" value="Month 7-8" style="fillColor=#23445D;strokeColor=#FFFFFF;strokeWidth=2;fontColor=#FFFFFF;fontStyle=1" parent="1" vertex="1">
          <mxGeometry x="1106.5" y="340" width="140" height="40" as="geometry" />
        </mxCell>
        <mxCell id="39" value="Month 9-10" style="fillColor=#23445D;strokeColor=#FFFFFF;strokeWidth=2;fontColor=#FFFFFF;fontStyle=1" parent="1" vertex="1">
          <mxGeometry x="1246.5" y="340" width="140" height="40" as="geometry" />
        </mxCell>
        <mxCell id="47" value="Month 11-12" style="fillColor=#23445D;strokeColor=#FFFFFF;strokeWidth=2;fontColor=#FFFFFF;fontStyle=1" parent="1" vertex="1">
          <mxGeometry x="1386.5" y="340" width="140" height="40" as="geometry" />
        </mxCell>
        <mxCell id="55" value="Month 13-14" style="fillColor=#23445D;strokeColor=#FFFFFF;strokeWidth=2;fontColor=#FFFFFF;fontStyle=1" parent="1" vertex="1">
          <mxGeometry x="1526.5" y="340" width="143.5" height="40" as="geometry" />
        </mxCell>
        <mxCell id="242" value="" style="shape=mxgraph.flowchart.process;fillColor=#AE4132;strokeColor=#000000;strokeWidth=2;opacity=50" parent="1" vertex="1">
          <mxGeometry x="790" y="400" width="738.25" height="20" as="geometry" />
        </mxCell>
        <mxCell id="254" value="" style="shape=mxgraph.flowchart.process;fillColor=#fff2cc;strokeColor=#d6b656;strokeWidth=2;opacity=100;" parent="1" vertex="1">
          <mxGeometry x="686.5" y="380" width="983.5" height="20" as="geometry" />
        </mxCell>
        <mxCell id="266" value="" style="shape=mxgraph.flowchart.process;fillColor=#AE4132;strokeColor=none;strokeWidth=2;opacity=50" parent="1" vertex="1">
          <mxGeometry x="824.75" y="420" width="675.25" height="20" as="geometry" />
        </mxCell>
        <mxCell id="zG1hs_OUf3QxRmmQMbc3-280" value="" style="shape=mxgraph.arrows.bent_right_arrow;fillColor=#AE4132;strokeColor=none;strokeWidth=2;direction=south" vertex="1" parent="1">
          <mxGeometry x="1511.5000000000018" y="220.00000000000136" width="10.000000000000341" height="9.99999999999983" as="geometry" />
        </mxCell>
        <mxCell id="zG1hs_OUf3QxRmmQMbc3-283" value="Tableau Cloud" style="align=left;strokeColor=#DEEDFF" vertex="1" parent="1">
          <mxGeometry x="366.500000000001" y="780.0000000000036" width="319.999999999999" height="20" as="geometry" />
        </mxCell>
        <mxCell id="zG1hs_OUf3QxRmmQMbc3-284" value="27" style="strokeColor=#DEEDFF" vertex="1" parent="1">
          <mxGeometry x="326.500000000001" y="880.0000000000036" width="40" height="20" as="geometry" />
        </mxCell>
        <mxCell id="zG1hs_OUf3QxRmmQMbc3-285" value="Business Analytics Application Installation" style="align=left;strokeColor=#DEEDFF" vertex="1" parent="1">
          <mxGeometry x="366.5" y="580.0000000000016" width="320" height="20" as="geometry" />
        </mxCell>
        <mxCell id="zG1hs_OUf3QxRmmQMbc3-286" value="" style="align=left;strokeColor=#DEEDFF" vertex="1" parent="1">
          <mxGeometry x="366.5" y="600.0000000000016" width="320" height="20" as="geometry" />
        </mxCell>
        <mxCell id="zG1hs_OUf3QxRmmQMbc3-287" value="On Premises Deployments" style="align=left;strokeColor=#DEEDFF;fillColor=#CCE5FF" vertex="1" parent="1">
          <mxGeometry x="366.4999999999996" y="600.000000000002" width="320.0000000000004" height="20" as="geometry" />
        </mxCell>
        <mxCell id="zG1hs_OUf3QxRmmQMbc3-288" value="SaaS Sourcing, Installation, and Configuration" style="align=left;strokeColor=#DEEDFF;fillColor=#CCE5FF" vertex="1" parent="1">
          <mxGeometry x="366.4999999999996" y="720.000000000002" width="320.0000000000004" height="20" as="geometry" />
        </mxCell>
        <mxCell id="zG1hs_OUf3QxRmmQMbc3-289" value="Testing and generalized deployment" style="align=left;strokeColor=#DEEDFF;fillColor=#CCE5FF" vertex="1" parent="1">
          <mxGeometry x="366.4999999999996" y="800.000000000002" width="320.0000000000004" height="20" as="geometry" />
        </mxCell>
        <mxCell id="zG1hs_OUf3QxRmmQMbc3-291" value="Integration Testing" style="align=left;strokeColor=#DEEDFF" vertex="1" parent="1">
          <mxGeometry x="366.500000000001" y="820.0000000000036" width="319.999999999999" height="20" as="geometry" />
        </mxCell>
        <mxCell id="zG1hs_OUf3QxRmmQMbc3-292" value="Load Testing" style="align=left;strokeColor=#DEEDFF" vertex="1" parent="1">
          <mxGeometry x="366.500000000001" y="840.0000000000036" width="319.999999999999" height="20" as="geometry" />
        </mxCell>
        <mxCell id="zG1hs_OUf3QxRmmQMbc3-293" value="Roll Over To The New Deployment" style="align=left;strokeColor=#DEEDFF" vertex="1" parent="1">
          <mxGeometry x="366.500000000001" y="860.0000000000036" width="319.999999999999" height="20" as="geometry" />
        </mxCell>
        <mxCell id="zG1hs_OUf3QxRmmQMbc3-294" value="Tableau Cloud" style="align=left;strokeColor=#DEEDFF" vertex="1" parent="1">
          <mxGeometry x="366.500000000001" y="880.0000000000036" width="319.999999999999" height="20" as="geometry" />
        </mxCell>
        <mxCell id="zG1hs_OUf3QxRmmQMbc3-295" value="Migration Completed" style="align=left;strokeColor=#DEEDFF;fillColor=#CCE5FF" vertex="1" parent="1">
          <mxGeometry x="366.4999999999996" y="880.000000000002" width="320.0000000000004" height="20" as="geometry" />
        </mxCell>
        <mxCell id="zG1hs_OUf3QxRmmQMbc3-296" value="" style="shape=mxgraph.flowchart.process;fillColor=#AE4132;strokeColor=none;strokeWidth=2;opacity=50" vertex="1" parent="1">
          <mxGeometry x="824.75" y="440" width="685.25" height="20" as="geometry" />
        </mxCell>
        <mxCell id="zG1hs_OUf3QxRmmQMbc3-297" value="" style="shape=mxgraph.flowchart.process;fillColor=#AE4132;strokeColor=none;strokeWidth=2;opacity=50" vertex="1" parent="1">
          <mxGeometry x="824.75" y="460" width="685.25" height="20" as="geometry" />
        </mxCell>
        <mxCell id="zG1hs_OUf3QxRmmQMbc3-298" value="" style="shape=mxgraph.flowchart.process;fillColor=#AE4132;strokeColor=none;strokeWidth=2;opacity=50" vertex="1" parent="1">
          <mxGeometry x="824.75" y="480" width="703.5" height="20" as="geometry" />
        </mxCell>
        <mxCell id="zG1hs_OUf3QxRmmQMbc3-299" value="" style="shape=mxgraph.flowchart.process;fillColor=#AE4132;strokeColor=none;strokeWidth=2;opacity=50" vertex="1" parent="1">
          <mxGeometry x="790" y="500" width="738.25" height="20" as="geometry" />
        </mxCell>
        <mxCell id="zG1hs_OUf3QxRmmQMbc3-300" value="" style="shape=mxgraph.flowchart.process;fillColor=#AE4132;strokeColor=none;strokeWidth=2;opacity=50" vertex="1" parent="1">
          <mxGeometry x="686.5" y="540" width="103.5" height="20" as="geometry" />
        </mxCell>
        <mxCell id="zG1hs_OUf3QxRmmQMbc3-301" value="" style="shape=mxgraph.flowchart.process;fillColor=#AE4132;strokeColor=#000000;strokeWidth=2;opacity=50" vertex="1" parent="1">
          <mxGeometry x="824.75" y="600" width="195.25" height="20" as="geometry" />
        </mxCell>
        <mxCell id="zG1hs_OUf3QxRmmQMbc3-302" value="" style="shape=mxgraph.flowchart.process;fillColor=#AE4132;strokeColor=none;strokeWidth=2;opacity=50" vertex="1" parent="1">
          <mxGeometry x="720" y="560" width="60" height="20" as="geometry" />
        </mxCell>
        <mxCell id="zG1hs_OUf3QxRmmQMbc3-303" value="" style="shape=mxgraph.flowchart.process;fillColor=#AE4132;strokeColor=none;strokeWidth=2;opacity=50" vertex="1" parent="1">
          <mxGeometry x="780" y="580" width="50" height="20" as="geometry" />
        </mxCell>
        <mxCell id="zG1hs_OUf3QxRmmQMbc3-304" value="" style="shape=mxgraph.flowchart.process;fillColor=#AE4132;strokeColor=none;strokeWidth=2;opacity=50" vertex="1" parent="1">
          <mxGeometry x="823" y="620" width="47" height="20" as="geometry" />
        </mxCell>
        <mxCell id="zG1hs_OUf3QxRmmQMbc3-305" value="" style="shape=mxgraph.flowchart.process;fillColor=#AE4132;strokeColor=none;strokeWidth=2;opacity=50" vertex="1" parent="1">
          <mxGeometry x="866.5" y="640" width="67" height="20" as="geometry" />
        </mxCell>
        <mxCell id="zG1hs_OUf3QxRmmQMbc3-306" value="" style="shape=mxgraph.flowchart.process;fillColor=#AE4132;strokeColor=none;strokeWidth=2;opacity=50" vertex="1" parent="1">
          <mxGeometry x="888.87" y="660" width="67" height="20" as="geometry" />
        </mxCell>
        <mxCell id="zG1hs_OUf3QxRmmQMbc3-307" value="" style="shape=mxgraph.flowchart.process;fillColor=#AE4132;strokeColor=none;strokeWidth=2;opacity=50" vertex="1" parent="1">
          <mxGeometry x="919.5" y="680" width="67" height="20" as="geometry" />
        </mxCell>
        <mxCell id="zG1hs_OUf3QxRmmQMbc3-308" value="" style="shape=mxgraph.flowchart.process;fillColor=#AE4132;strokeColor=none;strokeWidth=2;opacity=50" vertex="1" parent="1">
          <mxGeometry x="953" y="700" width="67" height="20" as="geometry" />
        </mxCell>
        <mxCell id="zG1hs_OUf3QxRmmQMbc3-309" value="" style="shape=mxgraph.flowchart.process;fillColor=#AE4132;strokeColor=#000000;strokeWidth=2;opacity=50" vertex="1" parent="1">
          <mxGeometry x="686.5" y="520" width="143.5" height="20" as="geometry" />
        </mxCell>
        <mxCell id="zG1hs_OUf3QxRmmQMbc3-310" value="" style="shape=mxgraph.flowchart.process;fillColor=#AE4132;strokeColor=#000000;strokeWidth=2;opacity=50" vertex="1" parent="1">
          <mxGeometry x="686.5" y="720" width="43.5" height="20" as="geometry" />
        </mxCell>
        <mxCell id="zG1hs_OUf3QxRmmQMbc3-313" value="" style="shape=mxgraph.flowchart.process;fillColor=#AE4132;strokeColor=none;strokeWidth=2;opacity=50" vertex="1" parent="1">
          <mxGeometry x="686.5" y="740" width="33.5" height="20" as="geometry" />
        </mxCell>
        <mxCell id="zG1hs_OUf3QxRmmQMbc3-314" value="" style="shape=mxgraph.flowchart.process;fillColor=#AE4132;strokeColor=none;strokeWidth=2;opacity=50" vertex="1" parent="1">
          <mxGeometry x="686.5" y="760" width="33.5" height="20" as="geometry" />
        </mxCell>
        <mxCell id="zG1hs_OUf3QxRmmQMbc3-315" value="" style="shape=mxgraph.flowchart.process;fillColor=#AE4132;strokeColor=none;strokeWidth=2;opacity=50" vertex="1" parent="1">
          <mxGeometry x="700" y="780" width="30" height="20" as="geometry" />
        </mxCell>
        <mxCell id="zG1hs_OUf3QxRmmQMbc3-317" value="" style="shape=mxgraph.flowchart.process;fillColor=#AE4132;strokeColor=#000000;strokeWidth=2;opacity=50" vertex="1" parent="1">
          <mxGeometry x="1480" y="800" width="190" height="20" as="geometry" />
        </mxCell>
        <mxCell id="zG1hs_OUf3QxRmmQMbc3-318" value="" style="shape=mxgraph.flowchart.process;fillColor=#AE4132;strokeColor=none;strokeWidth=2;opacity=50" vertex="1" parent="1">
          <mxGeometry x="1478" y="820" width="102" height="20" as="geometry" />
        </mxCell>
        <mxCell id="zG1hs_OUf3QxRmmQMbc3-319" value="" style="shape=mxgraph.flowchart.process;fillColor=#AE4132;strokeColor=none;strokeWidth=2;opacity=50" vertex="1" parent="1">
          <mxGeometry x="1568" y="840" width="82" height="20" as="geometry" />
        </mxCell>
        <mxCell id="zG1hs_OUf3QxRmmQMbc3-320" value="" style="shape=mxgraph.flowchart.process;fillColor=#AE4132;strokeColor=none;strokeWidth=2;opacity=50" vertex="1" parent="1">
          <mxGeometry x="1646.5" y="860" width="23.5" height="20" as="geometry" />
        </mxCell>
        <mxCell id="zG1hs_OUf3QxRmmQMbc3-321" value="" style="shape=mxgraph.flowchart.process;fillColor=#d5e8d4;strokeColor=#82b366;strokeWidth=2;" vertex="1" parent="1">
          <mxGeometry x="1650" y="880" width="21.5" height="20" as="geometry" />
        </mxCell>
        <mxCell id="zG1hs_OUf3QxRmmQMbc3-322" value="16" style="strokeColor=#DEEDFF" vertex="1" parent="1">
          <mxGeometry x="326.4999999999997" y="660.0000000000018" width="40" height="20" as="geometry" />
        </mxCell>
      </root>
    </mxGraphModel>
  </diagram>
</mxfile>
